<svg width="20" height="21" viewBox="0 0 20 21" fill="none" xmlns="http://www.w3.org/2000/svg">
<path d="M6.03571 0.725977C6.27679 0.278906 6.77232 0 7.3125 0H12.6875C13.2277 0 13.7232 0.278906 13.9643 0.725977L14.2857 1.3125H18.5714C19.3616 1.3125 20 1.89902 20 2.625C20 3.35098 19.3616 3.9375 18.5714 3.9375H1.42857C0.638393 3.9375 0 3.35098 0 2.625C0 1.89902 0.638393 1.3125 1.42857 1.3125H5.71429L6.03571 0.725977ZM1.42857 5.25H18.5714V18.375C18.5714 19.8229 17.2902 21 15.7143 21H4.28571C2.70982 21 1.42857 19.8229 1.42857 18.375V5.25ZM5.71429 7.875C5.32143 7.875 5 8.17031 5 8.53125V17.7188C5 18.0797 5.32143 18.375 5.71429 18.375C6.10714 18.375 6.42857 18.0797 6.42857 17.7188V8.53125C6.42857 8.17031 6.10714 7.875 5.71429 7.875ZM10 7.875C9.60714 7.875 9.28571 8.17031 9.28571 8.53125V17.7188C9.28571 18.0797 9.60714 18.375 10 18.375C10.3929 18.375 10.7143 18.0797 10.7143 17.7188V8.53125C10.7143 8.17031 10.3929 7.875 10 7.875ZM14.2857 7.875C13.8929 7.875 13.5714 8.17031 13.5714 8.53125V17.7188C13.5714 18.0797 13.8929 18.375 14.2857 18.375C14.6786 18.375 15 18.0797 15 17.7188V8.53125C15 8.17031 14.6786 7.875 14.2857 7.875Z" fill="white"/>
</svg>
