<svg width="18" height="18" viewBox="0 0 18 18" fill="none" xmlns="http://www.w3.org/2000/svg">
<path d="M8.01562 11.9902H14.0156V14.0059H8.01562V11.9902ZM6 3.97461H3.98438V5.99023H6V3.97461ZM8.01562 9.97461H14.0156V8.00586H8.01562V9.97461ZM8.01562 5.99023H14.0156V3.97461H8.01562V5.99023ZM6 8.00586H3.98438V9.97461H6V8.00586ZM18 2.00586V15.9746C18 16.5371 17.8047 17.0137 17.4141 17.4043C17.0234 17.7949 16.5469 17.9902 15.9844 17.9902H2.01562C1.45312 17.9902 0.976562 17.7949 0.585938 17.4043C0.195313 17.0137 0 16.5371 0 15.9746V2.00586C0 1.44336 0.195313 0.966797 0.585938 0.576172C0.976562 0.185547 1.45312 -0.00976562 2.01562 -0.00976562H15.9844C16.5469 -0.00976562 17.0234 0.185547 17.4141 0.576172C17.8047 0.966797 18 1.44336 18 2.00586ZM15.9844 2.00586H2.01562V15.9746H15.9844V2.00586ZM6 11.9902H3.98438V14.0059H6V11.9902Z" fill="white"/>
</svg>
