<svg width="25" height="25" viewBox="0 0 25 25" fill="none" xmlns="http://www.w3.org/2000/svg">
<g clip-path="url(#clip0_57_89)">
<path d="M14.871 3.78154L15.0129 3.30207C14.4586 3.13814 14.139 2.54796 14.3047 1.98793C14.4686 1.43399 15.0589 1.1142 15.6193 1.27997L16.0259 1.40023C16.8813 1.68755 17.6895 2.06707 18.442 2.52972L18.6676 2.66841L18.909 2.55977C19.2344 2.41338 19.5975 2.33146 19.9831 2.33146C21.4241 2.33146 22.5961 3.50339 22.5961 4.9438C22.5961 5.32934 22.5142 5.69228 22.3678 6.01756L22.2593 6.25842L22.3972 6.48373C22.9341 7.36133 23.359 8.30881 23.6578 9.31245L23.6583 9.31425C23.8254 9.86794 23.5082 10.4572 22.9468 10.6266C22.3907 10.7944 21.7995 10.4744 21.6348 9.91783C21.4138 9.16772 21.1008 8.45515 20.7169 7.79507L20.556 7.51832L20.2373 7.54867C20.1501 7.55697 20.0686 7.561 19.9831 7.561C18.5422 7.561 17.3701 6.38908 17.3701 4.94867C17.3701 4.86729 17.3743 4.78179 17.3823 4.70178L17.4143 4.3815L17.136 4.21974C16.4756 3.83588 15.7627 3.52288 15.0123 3.3019L14.871 3.78154ZM14.871 3.78154C14.049 3.53839 13.5821 2.6679 13.8253 1.84605C14.0104 1.22041 14.5592 0.800492 15.1733 0.742924L20.2847 8.04641C20.1825 8.05614 20.0853 8.061 19.9831 8.061C18.2661 8.061 16.8701 6.66531 16.8701 4.94867C16.8701 4.8514 16.875 4.74928 16.8847 4.65202C16.2573 4.28729 15.5812 3.99065 14.871 3.78154ZM2.87743 15.9042L2.77146 15.5461C2.60675 14.9895 2.01558 14.6695 1.45945 14.8373C0.898035 15.0067 0.580811 15.5959 0.747936 16.1496L0.748479 16.1514C1.0473 17.1551 1.47211 18.1026 2.00905 18.9802L2.14769 19.2068L2.03752 19.4485C1.89225 19.7672 1.81016 20.1293 1.81016 20.5152C1.81016 21.9556 2.98218 23.1276 4.42313 23.1276C4.8088 23.1276 5.17184 23.0456 5.49722 22.8993L5.73869 22.7906L5.96425 22.9293C6.83639 23.4655 7.78349 23.8901 8.79198 24.1888C9.35231 24.3545 9.94249 24.0347 10.1064 23.4808C10.2721 22.921 9.95269 22.331 9.39884 22.1669C9.39865 22.1668 9.39845 22.1667 9.39825 22.1667L9.54008 21.6872C8.82993 21.4781 8.15383 21.1815 7.52637 20.8167L2.87743 15.9042ZM2.87743 15.9042H2.88973H2.87743ZM23.6604 16.154L23.6575 16.1522C23.8233 15.5922 23.5036 15.002 22.9494 14.8381C22.389 14.6723 21.7987 14.9921 21.6348 15.5461C21.4138 16.2962 21.1008 17.0087 20.7169 17.6688L20.5552 17.947L20.2349 17.915C20.1553 17.907 20.0698 17.9029 19.9831 17.9029C18.5422 17.9029 17.3701 19.0748 17.3701 20.5152C17.3701 20.6007 17.3742 20.6821 17.3825 20.7693L17.4129 21.0881L17.136 21.249C16.4756 21.6329 15.7627 21.9459 15.0123 22.1669M23.6604 16.154C23.3617 17.1597 22.9378 18.1043 22.4027 18.9743L22.2639 19.1999L22.3726 19.4415C22.519 19.7667 22.601 20.1297 22.601 20.5152C22.601 21.9556 21.4289 23.1276 19.988 23.1276C19.6023 23.1276 19.2393 23.0456 18.9139 22.8993L18.6731 22.7909L18.4479 22.9287C17.5701 23.4655 16.6224 23.8903 15.6185 24.189L15.6167 24.1896C15.0627 24.3567 14.4733 24.0394 14.3039 23.4782C14.1363 22.9226 14.4558 22.3318 15.0123 22.1669M23.6604 16.154C23.6605 16.1537 23.6606 16.1534 23.6607 16.1532C23.6613 16.1512 23.6619 16.1492 23.6625 16.1472L24.128 16.2852L14.871 21.6872M23.6604 16.154L24.1032 16.4173C23.7943 17.4199 23.3651 18.3639 22.8286 19.2362C23.0037 19.6253 23.101 20.0581 23.101 20.5152C23.101 22.2319 21.705 23.6276 19.988 23.6276C19.5308 23.6276 19.0979 23.5303 18.7087 23.3552C17.7943 23.9145 16.8069 24.357 15.7612 24.6682C14.9391 24.9163 14.0733 24.4445 13.8253 23.6227C13.5772 22.8008 14.049 21.9304 14.871 21.6872M15.0123 22.1669L14.871 21.6872M15.0123 22.1669C15.0125 22.1668 15.0127 22.1667 15.0129 22.1667L14.871 21.6872M9.39339 3.30207L9.18517 3.36367L9.17888 3.37624C8.50534 3.59197 7.86379 3.88162 7.26538 4.22947L6.9871 4.39123L7.01913 4.71151C7.02717 4.79191 7.03124 4.87255 7.03124 4.95839C7.03124 6.3988 5.85922 7.57073 4.41827 7.57073C4.33686 7.57073 4.25134 7.56662 4.17131 7.55862L3.8511 7.52661L3.68933 7.80479C3.30544 8.46496 2.9924 9.17763 2.77137 9.92785C2.60733 10.4816 2.01714 10.8013 1.45685 10.6355L1.32039 11.0969L1.45685 10.6355C0.902704 10.4716 0.583063 9.88155 0.748656 9.32157C1.04746 8.3133 1.47209 7.36642 2.00843 6.49446L2.14721 6.26884L2.03849 6.02729C1.89209 5.702 1.81016 5.33907 1.81016 4.95353C1.81016 3.51312 2.98218 2.34119 4.42313 2.34119C4.80921 2.34119 5.17138 2.42326 5.4902 2.56852L5.73184 2.67861L5.95837 2.54007C6.83617 2.00323 7.78385 1.57849 8.78772 1.27973L8.78953 1.27919C9.34357 1.11203 9.93293 1.42938 10.1023 1.99053C10.2701 2.5463 9.95025 3.13736 9.39339 3.30207ZM8.6315 12.7733V12.8913L8.63839 12.9051C8.68318 14.2537 9.46736 15.4198 10.6069 16.0004L10.6073 16.0006C10.9311 16.1652 11.0628 16.5673 10.8941 16.899C10.7296 17.2225 10.3277 17.3543 9.99586 17.186C8.39564 16.3683 7.29677 14.7029 7.29677 12.7781C7.29677 11.5016 7.78239 10.3361 8.57334 9.46135L8.89228 9.10863L8.55599 8.77242L8.01391 8.23047C8.01368 8.23024 8.01347 8.23002 8.01326 8.2298C8.01151 8.22796 8.01045 8.22661 8.00986 8.22578C8.00993 8.22461 8.01024 8.22237 8.01147 8.21939C8.0121 8.21786 8.01274 8.21672 8.01326 8.21591C8.01435 8.21581 8.01579 8.21573 8.01764 8.21573H10.9603C10.9609 8.21596 10.9622 8.21671 10.9637 8.21825C10.9644 8.21891 10.9649 8.21954 10.9653 8.22008C10.9658 8.22076 10.9661 8.2213 10.9662 8.2216V11.1588C10.9662 11.1615 10.9661 11.1633 10.9659 11.1645C10.965 11.1652 10.9635 11.1662 10.9612 11.1672C10.9597 11.1678 10.9585 11.1682 10.9576 11.1683C10.9567 11.1676 10.9555 11.1665 10.9539 11.165L10.2098 10.421L9.82196 10.0333L9.4716 10.4551C8.94833 11.0852 8.6315 11.8924 8.6315 12.7733ZM8.00928 8.22488L8.00928 8.22489L8.00928 8.22488ZM15.8574 12.6955C15.8574 11.3245 15.0935 10.1268 13.9596 9.51611L13.9524 9.50894L13.8816 9.47297C13.5579 9.30838 13.4262 8.90627 13.5949 8.57458C13.7594 8.25106 14.1615 8.11922 14.4933 8.28771C16.0934 9.10554 17.1922 10.7708 17.1922 12.6955C17.1922 13.972 16.7065 15.1375 15.9156 16.0123L15.5967 16.365L15.9329 16.7012L16.475 17.2431C16.4753 17.2434 16.4755 17.2436 16.4757 17.2438C16.4774 17.2456 16.4785 17.247 16.4791 17.2478C16.479 17.249 16.4787 17.2512 16.4775 17.2542C16.4768 17.2557 16.4762 17.2569 16.4757 17.2577C16.4746 17.2578 16.4731 17.2579 16.4713 17.2579H13.5286C13.5281 17.2576 13.5267 17.2569 13.5252 17.2554C13.5237 17.2539 13.523 17.2526 13.5227 17.252V14.31C13.5227 14.3073 13.5229 14.3054 13.523 14.3042C13.5239 14.3035 13.5254 14.3025 13.5277 14.3016C13.5292 14.3009 13.5304 14.3006 13.5313 14.3004C13.5323 14.3011 13.5335 14.3022 13.535 14.3037L14.2792 15.0478L14.667 15.4355L15.0173 15.0136C15.5406 14.3836 15.8574 13.5764 15.8574 12.6955Z" fill="white" stroke="white"/>
</g>
<defs>
<clipPath id="clip0_57_89">
<rect width="25" height="25" fill="white"/>
</clipPath>
</defs>
</svg>
