<svg width="24" height="24" viewBox="0 0 24 24" fill="none" xmlns="http://www.w3.org/2000/svg">
<path d="M12 3.98438C13.0938 3.98438 14.0312 4.375 14.8125 5.15625C15.5938 5.9375 15.9844 6.88281 15.9844 7.99219C15.9844 9.10156 15.5938 10.0469 14.8125 10.8281C14.0312 11.6094 13.0938 12 12 12C10.9062 12 9.96875 11.6094 9.1875 10.8281C8.40625 10.0469 8.01562 9.10156 8.01562 7.99219C8.01562 6.88281 8.40625 5.9375 9.1875 5.15625C9.96875 4.375 10.9062 3.98438 12 3.98438ZM12 14.0156C13.4375 14.0156 14.7734 14.1953 16.0078 14.5547C17.2422 14.9141 18.2188 15.3984 18.9375 16.0078C19.6562 16.6172 20.0156 17.2812 20.0156 18V20.0156H3.98438V18C3.98438 17.2812 4.34375 16.6172 5.0625 16.0078C5.78125 15.3984 6.75781 14.9141 7.99219 14.5547C9.22656 14.1953 10.5625 14.0156 12 14.0156Z" fill="white"/>
</svg>
