<svg width="24" height="24" viewBox="0 0 24 24" fill="none" xmlns="http://www.w3.org/2000/svg">
<path d="M6 2.00586C5.4375 2.00586 4.96094 2.20117 4.57031 2.5918C4.17969 2.98242 3.98438 3.44336 3.98438 3.97461V11.9902C3.98438 12.5527 4.17969 13.0293 4.57031 13.4199C4.96094 13.8105 5.4375 14.0059 6 14.0059H18C18.5625 14.0059 19.0391 13.8105 19.4297 13.4199C19.8203 13.0293 20.0156 12.5527 20.0156 11.9902V3.97461C20.0156 3.44336 19.8203 2.98242 19.4297 2.5918C19.0391 2.20117 18.5625 2.00586 18 2.00586H6ZM6 3.97461H18V11.9902H6V3.97461ZM3.98438 14.9902C3.45312 14.9902 2.99219 15.1855 2.60156 15.5762C2.21094 15.9668 2.01562 16.4434 2.01562 17.0059V20.0059C2.01562 20.5371 2.21094 20.998 2.60156 21.3887C2.99219 21.7793 3.45312 21.9746 3.98438 21.9746H20.0156C20.5469 21.9746 21.0078 21.7793 21.3984 21.3887C21.7891 20.998 21.9844 20.5371 21.9844 20.0059V17.0059C21.9844 16.4434 21.7891 15.9668 21.3984 15.5762C21.0078 15.1855 20.5469 14.9902 20.0156 14.9902H3.98438ZM8.01562 17.0059H20.0156V20.0059H8.01562V17.0059ZM9 17.7559V19.2559H12.9844V17.7559H9ZM15 17.7559V19.2559H18.9844V17.7559H15Z" fill="white"/>
</svg>
