<svg width="17" height="16" viewBox="0 0 17 16" fill="none" xmlns="http://www.w3.org/2000/svg">
<path d="M10.1533 4.49976C10.1533 3.11851 11.1477 1.99976 12.3755 1.99976C13.6033 1.99976 14.5977 3.11851 14.5977 4.49976V5.99976C14.5977 6.55288 14.9949 6.99976 15.4866 6.99976C15.9783 6.99976 16.3755 6.55288 16.3755 5.99976V4.49976C16.3755 2.01538 14.5838 -0.000244141 12.3755 -0.000244141C10.1672 -0.000244141 8.37549 2.01538 8.37549 4.49976V5.99976H2.15327C1.17271 5.99976 0.375488 6.89663 0.375488 7.99976V13.9998C0.375488 15.1029 1.17271 15.9998 2.15327 15.9998H11.0422C12.0227 15.9998 12.8199 15.1029 12.8199 13.9998V7.99976C12.8199 6.89663 12.0227 5.99976 11.0422 5.99976H10.1533V4.49976Z" fill="white"/>
</svg>
