<svg width="35" height="35" viewBox="0 0 35 35" fill="none" xmlns="http://www.w3.org/2000/svg">
<circle cx="17.5" cy="17.5" r="17" fill="#0C0C11" stroke="white"/>
<path d="M21.5294 13.02C21.5294 13.66 21.4094 14.22 21.1694 14.7C20.9294 15.1667 20.596 15.5467 20.1694 15.84C19.756 16.1333 19.2627 16.3467 18.6894 16.48V16.56C19.7827 16.6933 20.596 17.0533 21.1294 17.64C21.676 18.2133 21.9494 18.9733 21.9494 19.92C21.9494 20.7467 21.7627 21.4867 21.3894 22.14C21.016 22.78 20.436 23.2867 19.6494 23.66C18.876 24.02 17.8827 24.2 16.6694 24.2C15.936 24.2 15.2627 24.14 14.6494 24.02C14.0494 23.9 13.4694 23.7 12.9094 23.42V21.5C13.4694 21.8067 14.0694 22.04 14.7094 22.2C15.3627 22.36 15.976 22.44 16.5494 22.44C17.656 22.44 18.4494 22.2133 18.9294 21.76C19.4094 21.2933 19.6494 20.6467 19.6494 19.82C19.6494 19.2867 19.5227 18.8533 19.2694 18.52C19.016 18.1733 18.6294 17.92 18.1094 17.76C17.5894 17.5867 16.9294 17.5 16.1294 17.5H14.9694V15.76H16.1494C16.896 15.76 17.5027 15.66 17.9694 15.46C18.4494 15.2467 18.796 14.9533 19.0094 14.58C19.236 14.2067 19.3494 13.78 19.3494 13.3C19.3494 12.66 19.156 12.1667 18.7694 11.82C18.396 11.46 17.856 11.28 17.1494 11.28C16.696 11.28 16.276 11.3333 15.8894 11.44C15.516 11.5467 15.1694 11.6867 14.8494 11.86C14.5427 12.0333 14.256 12.2267 13.9894 12.44L12.9694 10.98C13.3027 10.7133 13.6827 10.4667 14.1094 10.24C14.536 10.0133 15.0094 9.84 15.5294 9.72C16.0494 9.58667 16.6294 9.52 17.2694 9.52C18.6694 9.52 19.7294 9.84667 20.4494 10.5C21.1694 11.14 21.5294 11.98 21.5294 13.02Z" fill="white"/>
</svg>
