<svg width="35" height="35" viewBox="0 0 35 35" fill="none" xmlns="http://www.w3.org/2000/svg">
<circle cx="17.5" cy="17.5" r="17" fill="#4CAF50" stroke="white"/>
<path d="M22.5494 20.84H20.7294V24H18.6094V20.84H12.4694V19.16L18.5894 9.66H20.7294V19.04H22.5494V20.84ZM18.6094 15.16C18.6094 14.84 18.6094 14.5333 18.6094 14.24C18.6227 13.9467 18.636 13.6667 18.6494 13.4C18.6627 13.12 18.6694 12.8667 18.6694 12.64C18.6827 12.4 18.696 12.1867 18.7094 12H18.6294C18.5227 12.2667 18.396 12.54 18.2494 12.82C18.116 13.1 17.9827 13.3467 17.8494 13.56L14.4894 19.04H18.6094V15.16Z" fill="white"/>
</svg>
