<svg width="35" height="35" viewBox="0 0 35 35" fill="none" xmlns="http://www.w3.org/2000/svg">
<circle cx="17.5" cy="17.5" r="17" fill="#4CAF50" stroke="white"/>
<path d="M22.0494 24H12.9294V22.36L16.3894 18.62C17.056 17.8867 17.6094 17.2533 18.0494 16.72C18.4894 16.1733 18.816 15.6533 19.0294 15.16C19.256 14.6533 19.3694 14.1067 19.3694 13.52C19.3694 12.7867 19.176 12.24 18.7894 11.88C18.416 11.5067 17.9227 11.32 17.3094 11.32C16.7094 11.32 16.1694 11.4467 15.6894 11.7C15.2094 11.94 14.7094 12.28 14.1894 12.72L13.0094 11.3C13.3827 10.9667 13.776 10.6667 14.1894 10.4C14.616 10.1333 15.0894 9.92 15.6094 9.76C16.1427 9.6 16.7427 9.52 17.4094 9.52C18.2627 9.52 18.996 9.68 19.6094 10C20.236 10.3067 20.716 10.7467 21.0494 11.32C21.396 11.8933 21.5694 12.5667 21.5694 13.34C21.5694 13.9133 21.4827 14.4467 21.3094 14.94C21.1494 15.4333 20.9094 15.92 20.5894 16.4C20.2827 16.88 19.9094 17.3733 19.4694 17.88C19.0427 18.3733 18.5694 18.9067 18.0494 19.48L15.6894 22.02V22.12H22.0494V24Z" fill="white"/>
</svg>
