<svg width="25" height="25" viewBox="0 0 25 25" fill="none" xmlns="http://www.w3.org/2000/svg">
<path d="M21.6996 2.70506L22.2949 3.30045C22.7575 3.76298 22.7575 4.5109 22.2949 4.96851L20.8631 6.4053L18.5947 4.13694L20.0266 2.70506C20.4891 2.24253 21.237 2.24253 21.6946 2.70506H21.6996ZM10.3233 12.4133L16.9266 5.805L19.195 8.07337L12.5867 14.6767C12.444 14.8194 12.2669 14.9227 12.075 14.9769L9.19648 15.7986L10.0182 12.9201C10.0723 12.7282 10.1757 12.5511 10.3184 12.4084L10.3233 12.4133ZM18.3585 1.037L8.6503 10.7403C8.22221 11.1684 7.91222 11.6949 7.74984 12.2706L6.34257 17.1911C6.22447 17.6044 6.33765 18.0473 6.64272 18.3524C6.94779 18.6574 7.39064 18.7706 7.80397 18.6525L12.7245 17.2452C13.3051 17.0779 13.8316 16.7679 14.2548 16.3448L23.963 6.64149C25.3457 5.25882 25.3457 3.01506 23.963 1.63239L23.3676 1.037C21.9849 -0.345667 19.7412 -0.345667 18.3585 1.037ZM4.33007 2.95601C1.93869 2.95601 0 4.8947 0 7.28608V20.6699C0 23.0613 1.93869 25 4.33007 25H17.7139C20.1053 25 22.044 23.0613 22.044 20.6699V15.1589C22.044 14.5045 21.5175 13.978 20.8631 13.978C20.2086 13.978 19.6821 14.5045 19.6821 15.1589V20.6699C19.6821 21.7574 18.8014 22.6381 17.7139 22.6381H4.33007C3.24263 22.6381 2.36186 21.7574 2.36186 20.6699V7.28608C2.36186 6.19864 3.24263 5.31787 4.33007 5.31787H9.84107C10.4955 5.31787 11.022 4.79137 11.022 4.13694C11.022 3.48251 10.4955 2.95601 9.84107 2.95601H4.33007Z" fill="white"/>
</svg>
