<svg width="30" height="30" viewBox="0 0 30 30" fill="none" xmlns="http://www.w3.org/2000/svg">
<path d="M0.925087 15.2462C-0.400013 16.0021 -0.276885 18.0177 1.13616 18.6036L9.36234 22.0313V28.084C9.36234 29.1445 10.2184 30 11.2796 30C11.8484 30 12.3878 29.748 12.7513 29.3086L16.3865 24.9551L23.6511 27.9785C24.7593 28.4414 26.0434 27.7149 26.2251 26.5313L29.9776 2.15646C30.089 1.44748 29.7783 0.73264 29.1861 0.328347C28.5939 -0.0759473 27.8199 -0.111103 27.1926 0.246316L0.925087 15.2462ZM3.97985 16.7403L24.0029 5.30878L11.1272 19.6876L11.1975 19.7462L3.97985 16.7403ZM23.6277 24.9258L13.8595 20.8536L26.4127 6.8322L23.6277 24.9258Z" fill="white"/>
</svg>
