<svg width="18" height="22" viewBox="0 0 18 22" fill="none" xmlns="http://www.w3.org/2000/svg">
<path d="M14.06 10.6949C14.78 9.80977 15.2 8.73125 15.2 7.5625C15.2 4.52461 12.335 2.0625 8.8 2.0625C5.265 2.0625 2.4 4.52461 2.4 7.5625C2.4 8.73125 2.82 9.80977 3.54 10.6949C3.725 10.9227 3.945 11.1805 4.18 11.4555C4.825 12.216 5.595 13.127 6.17 14.025C6.69 14.8414 6.955 15.6922 7.085 16.4957H4.65C4.54 15.9801 4.355 15.4773 4.06 15.0133C3.565 14.2398 2.95 13.5137 2.335 12.7875C2.075 12.4824 1.815 12.1773 1.565 11.868C0.58 10.652 0 9.16523 0 7.5625C0 3.38594 3.94 0 8.8 0C13.66 0 17.6 3.38594 17.6 7.5625C17.6 9.16523 17.02 10.652 16.03 11.8723C15.78 12.1816 15.52 12.4867 15.26 12.7918C14.645 13.5137 14.03 14.2398 13.535 15.0176C13.24 15.4816 13.055 15.9844 12.945 16.5H10.52C10.65 15.6965 10.915 14.8414 11.435 14.0293C12.01 13.1313 12.78 12.2203 13.425 11.4598C13.66 11.1848 13.875 10.927 14.06 10.6992V10.6949ZM8.8 5.5C7.475 5.5 6.4 6.42383 6.4 7.5625C6.4 7.94063 6.04 8.25 5.6 8.25C5.16 8.25 4.8 7.94063 4.8 7.5625C4.8 5.66328 6.59 4.125 8.8 4.125C9.24 4.125 9.6 4.43437 9.6 4.8125C9.6 5.19063 9.24 5.5 8.8 5.5ZM8.8 22C6.59 22 4.8 20.4617 4.8 18.5625V17.875H12.8V18.5625C12.8 20.4617 11.01 22 8.8 22Z" fill="white"/>
</svg>
