<svg width="30" height="30" viewBox="0 0 30 30" fill="none" xmlns="http://www.w3.org/2000/svg">
<g clip-path="url(#clip0_76_624)">
<path d="M16.875 6.40314V20.6245C16.875 21.6617 16.0371 22.4996 15 22.4996C13.9629 22.4996 13.125 21.6617 13.125 20.6245V6.40314L8.82422 10.7041C8.0918 11.4366 6.90234 11.4366 6.16992 10.7041C5.4375 9.97168 5.4375 8.78217 6.16992 8.04971L13.6699 0.549343C14.4023 -0.183114 15.5918 -0.183114 16.3242 0.549343L23.8242 8.04971C24.5566 8.78217 24.5566 9.97168 23.8242 10.7041C23.0918 11.4366 21.9023 11.4366 21.1699 10.7041L16.875 6.40314ZM3.75 20.6245H11.25C11.25 22.693 12.9316 24.3747 15 24.3747C17.0684 24.3747 18.75 22.693 18.75 20.6245H26.25C28.3184 20.6245 30 22.3063 30 24.3747V26.2498C30 28.3183 28.3184 30 26.25 30H3.75C1.68164 30 0 28.3183 0 26.2498V24.3747C0 22.3063 1.68164 20.6245 3.75 20.6245ZM25.3125 26.7186C25.6855 26.7186 26.0431 26.5704 26.3069 26.3067C26.5706 26.043 26.7188 25.6853 26.7188 25.3123C26.7188 24.9393 26.5706 24.5816 26.3069 24.3179C26.0431 24.0541 25.6855 23.906 25.3125 23.906C24.9395 23.906 24.5819 24.0541 24.3181 24.3179C24.0544 24.5816 23.9062 24.9393 23.9062 25.3123C23.9062 25.6853 24.0544 26.043 24.3181 26.3067C24.5819 26.5704 24.9395 26.7186 25.3125 26.7186Z" fill="white"/>
</g>
<defs>
<clipPath id="clip0_76_624">
<rect width="30" height="30" fill="white"/>
</clipPath>
</defs>
</svg>
