<svg width="20" height="20" viewBox="0 0 20 20" fill="none" xmlns="http://www.w3.org/2000/svg">
<path d="M9.57026 0.513878L9.5721 0.513788C9.97485 0.492966 10.0843 0.495489 10.5492 0.522951C12.4794 0.645998 14.18 1.27286 15.6916 2.40856C17.8402 4.0288 19.159 6.36307 19.4667 9.10815L19.4668 9.10939C19.5123 9.50616 19.5099 10.5911 19.4664 11.0131C19.3347 12.2318 18.9697 13.454 18.4523 14.4489C17.1194 16.9885 14.7915 18.7834 12.0665 19.3848V16.4924V13.4848H12.7379H13.9093H14.3269L14.4013 13.0738L14.4201 12.97L14.4201 12.97C14.4376 12.8726 14.5439 12.1766 14.6436 11.5186C14.6955 11.1761 14.7468 10.8364 14.785 10.5807C14.8042 10.453 14.8201 10.3459 14.8313 10.2699L14.8445 10.1793L14.8484 10.151L14.8502 10.1374L14.8515 10.1253L14.8527 10.112L14.8527 10.1118C14.8529 10.1082 14.854 10.0935 14.854 10.0749C14.854 9.88751 14.7542 9.76566 14.6997 9.71347C14.6453 9.66137 14.592 9.63418 14.569 9.62324C14.5205 9.60007 14.4792 9.59025 14.4679 9.58756L14.4678 9.58754C14.4375 9.58033 14.4123 9.57739 14.4052 9.57655C14.3851 9.57419 14.3658 9.57297 14.3542 9.5723C14.3276 9.57077 14.2939 9.5696 14.2572 9.5686C14.1821 9.56658 14.0762 9.56487 13.9488 9.56349C13.693 9.56071 13.3419 9.55913 12.9571 9.55913H12.0673L12.0758 8.9557L12.0758 8.95399C12.0822 8.35732 12.0896 8.06239 12.1106 7.87801C12.1271 7.73334 12.1476 7.68359 12.2026 7.57524C12.2216 7.5387 12.2711 7.46958 12.3472 7.39339C12.4237 7.31693 12.4927 7.26756 12.5293 7.24879C12.6428 7.19124 12.7069 7.16774 12.8317 7.14991C12.986 7.12787 13.2172 7.11762 13.6693 7.10803L13.6702 7.10801L14.4908 7.08913L14.9793 7.0779V6.58927V5.35295V4.11349V3.71476L14.5906 3.62602L14.5217 3.6103L14.5206 3.61005C14.3564 3.57294 13.6701 3.49208 13.2449 3.45494M9.57026 0.513878L8.40779 5.57742C8.93144 4.50034 9.84659 3.8147 11.073 3.52611L11.073 3.52611C11.302 3.47222 11.7006 3.44376 12.0821 3.43243C12.477 3.4207 12.9146 3.4259 13.2449 3.45494M9.57026 0.513878C7.88865 0.594589 6.25739 1.11772 4.8371 2.03285L4.83648 2.03324C3.9686 2.59065 3.0414 3.46076 2.38657 4.33963C1.34202 5.74452 0.740695 7.28347 0.534124 9.10869L0.533986 9.10989C0.482561 9.55466 0.490908 10.6534 0.549402 11.1479C0.663078 12.0848 0.902014 12.9887 1.25218 13.8113L1.25227 13.8115C2.17484 15.9816 3.95767 17.8124 6.07029 18.7603C6.68356 19.0343 7.3333 19.2521 7.9344 19.3869V16.4892V13.4848M9.57026 0.513878L7.9344 13.4848M13.2449 3.45494L13.2014 3.95305M13.2449 3.45494C13.245 3.45495 13.2451 3.45497 13.2453 3.45498L13.2014 3.95305M13.2014 3.95305C12.5938 3.89957 11.5352 3.93103 11.1875 4.01282L12.3025 6.80318C12.6063 6.64904 12.7692 6.62702 13.6587 6.60814L14.4793 6.58927V5.35295V4.11349L14.4104 4.09776C14.2851 4.06944 13.6336 3.9908 13.2014 3.95305ZM7.9344 13.4848H7.15025H5.86609H5.36609V12.9848V11.5219V10.0591V9.55913H5.86609H7.15025H7.9344V8.70327C7.9344 7.81435 7.94684 7.24083 8.01245 6.79082C8.0818 6.31517 8.20908 5.98509 8.40753 5.57796L7.9344 13.4848Z" fill="black" stroke="white"/>
</svg>
