<svg width="25" height="25" viewBox="0 0 25 25" fill="none" xmlns="http://www.w3.org/2000/svg">
<path d="M20.0004 12.6833C20.0004 12.1666 19.9504 11.6333 19.8671 11.1333H12.6504V14.0833H16.7837C16.6171 15.0333 16.0671 15.8666 15.2504 16.4L17.7171 18.3166C19.1671 16.9666 20.0004 15 20.0004 12.6833Z" fill="#4280EF"/>
<path d="M12.6502 20.1501C14.7169 20.1501 16.4502 19.4667 17.7169 18.3001L15.2502 16.4001C14.5669 16.8667 13.6836 17.1334 12.6502 17.1334C10.6502 17.1334 8.96689 15.7834 8.35023 13.9834L5.81689 15.9334C7.11689 18.5167 9.75023 20.1501 12.6502 20.1501Z" fill="#34A353"/>
<path d="M8.35023 13.9664C8.03356 13.0164 8.03356 11.9831 8.35023 11.0331L5.81689 9.06641C4.73356 11.2331 4.73356 13.7831 5.81689 15.9331L8.35023 13.9664Z" fill="#F6B704"/>
<path d="M12.6502 7.88323C13.7336 7.86657 14.8002 8.28323 15.5836 9.03323L17.7669 6.83323C16.3836 5.53323 14.5502 4.83323 12.6502 4.8499C9.75023 4.8499 7.11689 6.48323 5.81689 9.06657L8.35023 11.0332C8.96689 9.21657 10.6502 7.88323 12.6502 7.88323Z" fill="#E54335"/>
</svg>
