<svg width="21" height="21" viewBox="0 0 21 21" fill="none" xmlns="http://www.w3.org/2000/svg">
<g clip-path="url(#clip0_68_376)">
<path d="M9.55153 0.353439C6.52987 0.50289 3.67239 1.8992 1.96025 4.05984C0.185569 6.29735 -0.260057 9.06434 0.736738 11.6136C1.41299 13.3301 2.79678 14.9058 4.52846 15.9135C4.72391 16.0288 4.88809 16.127 4.892 16.1313C4.89982 16.1355 4.77082 16.6181 4.60665 17.2031C4.05157 19.1545 3.96166 19.5003 3.91475 19.8078C3.85612 20.222 3.89521 20.333 4.1102 20.333C4.4151 20.333 5.06009 19.8975 7.34685 18.1425L8.44528 17.3013L8.75409 17.3525C9.25053 17.4379 11.2207 17.4208 11.8187 17.3312C13.2377 17.1134 14.34 16.7547 15.5127 16.127C16.5095 15.5975 17.2327 15.0467 17.9715 14.2695C18.679 13.5223 19.1129 12.886 19.5195 12.0021C21.2355 8.27865 19.6954 4.04276 15.8059 1.78818C14.3948 0.972595 12.624 0.44311 11.0565 0.37052C10.7985 0.357708 10.4897 0.340628 10.3724 0.336359C10.2551 0.327818 9.88379 0.336359 9.55153 0.353439ZM6.35788 6.37848C6.64323 6.47242 6.79177 6.80976 6.70187 7.13855C6.61196 7.46734 6.35788 7.57837 5.72071 7.56129C5.48617 7.55274 5.2829 7.56129 5.26727 7.57837C5.25163 7.59545 5.24381 8.20179 5.25163 8.92343C5.27899 11.2378 5.27899 11.3189 5.17736 11.5452C4.98191 11.9893 4.39556 11.9979 4.18447 11.5623C4.09848 11.3873 4.09848 11.3787 4.11411 9.48281L4.12584 7.57409L3.5864 7.56129C3.12904 7.5442 3.01959 7.52712 2.90623 7.4588C2.53488 7.21968 2.55833 6.62614 2.94923 6.39983C3.0665 6.33151 3.1525 6.32297 3.6294 6.34432C3.93039 6.35286 4.46592 6.34859 4.82164 6.32724C5.55262 6.28881 6.13897 6.30589 6.35788 6.37848ZM8.44528 6.42972C8.70327 6.56209 8.801 6.72435 9.00036 7.35205C9.1919 7.96267 9.41862 8.59891 9.79388 9.59383C10.3294 11.0029 10.4193 11.447 10.2239 11.6776C10.1222 11.7972 9.90334 11.8783 9.68834 11.8783C9.50071 11.8783 9.28181 11.6477 9.18017 11.3446C9.14108 11.225 9.07854 11.0499 9.03945 10.9474L8.96909 10.7681H8.08956H7.21395L7.08495 11.1609C6.92468 11.6605 6.74878 11.8783 6.51424 11.8783C6.26797 11.8783 6.00216 11.7587 5.9357 11.6178C5.79889 11.336 5.8888 10.9517 6.43215 9.5127C6.84259 8.41957 7.0654 7.79187 7.24522 7.21114C7.39767 6.72863 7.56576 6.48523 7.81202 6.39129C8.03874 6.30162 8.21465 6.31443 8.44528 6.42972ZM11.4982 6.41264C11.6272 6.47669 11.6819 6.53647 11.7406 6.67738C11.8109 6.84819 11.8187 6.97202 11.8187 8.75263V10.64L12.4559 10.6315C13.1439 10.6186 13.3042 10.6528 13.4605 10.8321C13.5778 10.9688 13.6091 11.3018 13.527 11.4812C13.4918 11.5538 13.398 11.6477 13.3159 11.6904C13.1791 11.763 13.0696 11.7716 12.0611 11.7673C10.7907 11.763 10.7985 11.763 10.6773 11.383C10.6187 11.1951 10.6148 10.956 10.6343 8.95332C10.6539 6.47242 10.646 6.55355 10.9314 6.40837C11.1386 6.30589 11.2871 6.30589 11.4982 6.41264ZM14.6528 6.38702C14.7388 6.42972 14.8169 6.51085 14.8756 6.63468C14.9616 6.80976 14.9655 6.85673 14.9577 7.56555L14.9459 8.30854L15.7786 7.40756C16.232 6.91224 16.6464 6.48523 16.6933 6.45961C17.0216 6.276 17.4477 6.60906 17.4477 7.04888C17.4477 7.24103 17.4438 7.2453 16.7402 8.01818C16.2398 8.56475 16.0405 8.81241 16.0639 8.85511C16.0796 8.885 16.3962 9.3419 16.7675 9.87138C17.135 10.4009 17.4672 10.8962 17.5024 10.9688C17.7409 11.4769 17.1819 12.0406 16.705 11.7716C16.6346 11.7331 16.3102 11.3018 15.8802 10.6827L15.1688 9.65788L15.0554 9.77317L14.9459 9.88846V10.6571C14.9459 11.5581 14.9186 11.652 14.6098 11.7972C14.2853 11.9552 13.9921 11.8271 13.8671 11.4684C13.7889 11.2421 13.7889 11.1823 13.8162 8.45373C13.8319 6.78414 13.8358 6.71154 13.914 6.59625C14.0781 6.35286 14.383 6.26746 14.6528 6.38702Z" fill="#F6E10C"/>
<path d="M7.80439 8.79102L7.53467 9.63649L8.07802 9.6493C8.37901 9.65357 8.6331 9.65357 8.64091 9.64076C8.66437 9.61514 8.13274 7.94982 8.10147 7.94982C8.08975 7.94982 7.95684 8.32986 7.80439 8.79102Z" fill="#F6E10C"/>
</g>
<defs>
<clipPath id="clip0_68_376">
<rect width="21" height="21" fill="white"/>
</clipPath>
</defs>
</svg>
