<svg width="30" height="30" viewBox="0 0 30 30" fill="none" xmlns="http://www.w3.org/2000/svg">
<g clip-path="url(#clip0_61_616)">
<path d="M14.0695 0.658894C11.9182 0.863104 10.3175 1.3169 8.50675 2.23585C6.36112 3.32496 4.4312 5.05507 3.02917 7.14255C2.10961 8.51529 1.25818 10.5347 0.93463 12.1343C0.690552 13.3369 0.645142 13.8077 0.645142 15.1408C0.645142 16.9106 0.838134 18.1245 1.36035 19.7071C1.66119 20.609 2.34234 22.0725 2.80779 22.7986C3.97142 24.6252 5.66295 26.3156 7.48502 27.4727C8.05265 27.8358 9.47739 28.5278 10.1812 28.7888C10.9135 29.0554 12.2758 29.3957 13.1045 29.5205C15.8575 29.9176 18.7978 29.4695 21.3237 28.2669C22.9471 27.4954 24.0994 26.6786 25.3993 25.3853C26.631 24.1487 27.4143 23.0709 28.1693 21.545C29.9232 18.0224 30.156 13.9949 28.822 10.2397C28.5553 9.48529 27.8968 8.12389 27.4881 7.4829C26.2904 5.59396 24.44 3.77876 22.6293 2.70099C20.285 1.30556 17.6852 0.596497 15.0344 0.630531C14.6144 0.630531 14.1773 0.647549 14.0695 0.658894ZM16.1413 3.56888C18.934 3.82981 21.3975 4.98133 23.3558 6.93834C26.8183 10.3986 27.7379 15.5605 25.6888 20.0361C25.1609 21.1763 24.3151 22.3732 23.3558 23.3375C19.8309 26.8771 14.5179 27.7564 10.011 25.5498C4.74339 22.9688 2.23449 16.8028 4.1928 11.2608C4.57878 10.1773 5.12938 9.15628 5.86729 8.16927C8.24564 4.987 12.2247 3.20584 16.1413 3.56888Z" fill="white"/>
<path d="M14.6882 7.95377C13.428 8.42458 13.3599 10.1036 14.5803 10.6539C15.2842 10.9715 16.181 10.6085 16.4989 9.87107C16.6067 9.61581 16.6067 9.04856 16.4989 8.78762C16.3797 8.504 16.1413 8.24306 15.8518 8.07289C15.5453 7.89137 15.0004 7.84032 14.6882 7.95377Z" fill="white"/>
<path d="M14.552 12.384C14.393 12.4521 14.183 12.6109 14.0752 12.7301C13.6835 13.1782 13.7005 12.9513 13.6835 17.1489C13.6722 19.7696 13.6892 21.0403 13.7289 21.2501C13.8084 21.6245 14.0638 21.9762 14.4384 22.2031C14.6825 22.3506 14.762 22.3733 15.1423 22.3733C15.5113 22.3733 15.6134 22.3506 15.8348 22.2201C16.1356 22.0443 16.3684 21.789 16.5046 21.4941C16.5841 21.3182 16.5954 20.8417 16.5954 17.3248C16.5954 12.9286 16.6181 13.1839 16.2208 12.7301C15.9597 12.4351 15.5453 12.2479 15.148 12.2479C14.938 12.2479 14.7393 12.2933 14.552 12.384Z" fill="white"/>
</g>
<defs>
<clipPath id="clip0_61_616">
<rect width="30" height="30" fill="white"/>
</clipPath>
</defs>
</svg>
