<svg width="40" height="35" viewBox="0 0 40 35" fill="none" xmlns="http://www.w3.org/2000/svg">
<path d="M4.44444 0C1.99306 0 0 2.24219 0 5V30C0 32.7578 1.99306 35 4.44444 35H35.5556C38.0069 35 40 32.7578 40 30V5C40 2.24219 38.0069 0 35.5556 0H4.44444ZM10 20H14.4444C17.5139 20 20 22.7969 20 26.25C20 26.9375 19.5 27.5 18.8889 27.5H5.55556C4.94444 27.5 4.44444 26.9375 4.44444 26.25C4.44444 22.7969 6.93056 20 10 20ZM7.77778 12.5C7.77778 11.1739 8.24603 9.90215 9.07953 8.96447C9.91302 8.02678 11.0435 7.5 12.2222 7.5C13.401 7.5 14.5314 8.02678 15.3649 8.96447C16.1984 9.90215 16.6667 11.1739 16.6667 12.5C16.6667 13.8261 16.1984 15.0979 15.3649 16.0355C14.5314 16.9732 13.401 17.5 12.2222 17.5C11.0435 17.5 9.91302 16.9732 9.07953 16.0355C8.24603 15.0979 7.77778 13.8261 7.77778 12.5ZM25.5556 10H34.4444C35.0556 10 35.5556 10.5625 35.5556 11.25C35.5556 11.9375 35.0556 12.5 34.4444 12.5H25.5556C24.9444 12.5 24.4444 11.9375 24.4444 11.25C24.4444 10.5625 24.9444 10 25.5556 10ZM25.5556 15H34.4444C35.0556 15 35.5556 15.5625 35.5556 16.25C35.5556 16.9375 35.0556 17.5 34.4444 17.5H25.5556C24.9444 17.5 24.4444 16.9375 24.4444 16.25C24.4444 15.5625 24.9444 15 25.5556 15ZM25.5556 20H34.4444C35.0556 20 35.5556 20.5625 35.5556 21.25C35.5556 21.9375 35.0556 22.5 34.4444 22.5H25.5556C24.9444 22.5 24.4444 21.9375 24.4444 21.25C24.4444 20.5625 24.9444 20 25.5556 20Z" fill="white"/>
</svg>
