<svg width="30" height="40" viewBox="0 0 30 40" fill="none" xmlns="http://www.w3.org/2000/svg">
<g clip-path="url(#clip0_194_543)">
<path d="M15 0C10.483 0 6.81818 3.35938 6.81818 7.5V20C6.81818 24.1406 10.483 27.5 15 27.5C19.517 27.5 23.1818 24.1406 23.1818 20V7.5C23.1818 3.35938 19.517 0 15 0ZM4.09091 16.875C4.09091 15.8359 3.17898 15 2.04545 15C0.911932 15 0 15.8359 0 16.875V20C0 26.9609 5.64205 32.7109 12.9545 33.625V36.25H8.86364C7.73011 36.25 6.81818 37.0859 6.81818 38.125C6.81818 39.1641 7.73011 40 8.86364 40H15H21.1364C22.2699 40 23.1818 39.1641 23.1818 38.125C23.1818 37.0859 22.2699 36.25 21.1364 36.25H17.0455V33.625C24.358 32.7109 30 26.9609 30 20V16.875C30 15.8359 29.0881 15 27.9545 15C26.821 15 25.9091 15.8359 25.9091 16.875V20C25.9091 25.5234 21.0256 30 15 30C8.97443 30 4.09091 25.5234 4.09091 20V16.875Z" fill="white"/>
</g>
<defs>
<clipPath id="clip0_194_543">
<rect width="30" height="40" fill="white"/>
</clipPath>
</defs>
</svg>
